<svg xmlns="http://www.w3.org/2000/svg" width="42" height="42" fill="none" viewBox="0 0 42 42"><path stroke="#0266C1" d="M.5.5h41v41H.5z"/><path stroke="#0266C1" stroke-linecap="round" stroke-linejoin="round" d="M20.662 26.72c-.74-3.122-2.913-5.751-5.907-7.141a11.251 11.251 0 0 0-4.664-1.042c.093 2.213.91 4.367 2.373 6.136 2.056 2.486 5.167 3.942 8.463 3.963-.027-.64-.115-1.28-.265-1.915Zm0 0c-.607-2.563-2.18-4.794-4.381-6.28.037-.22.082-.442.134-.662.625-2.643 2.278-4.931 4.585-6.415 2.307 1.484 3.96 3.772 4.585 6.415.052.22.097.441.134.663-2.2 1.485-3.774 3.716-4.381 6.28m-.676 0c.15.634.238 1.275.265 1.914l.137.001a11.3 11.3 0 0 0 2.71-.33l.015-.02c-.878.224-1.79.344-2.716.35m.265-1.915c.74-3.123 2.913-5.752 5.907-7.142a11.251 11.251 0 0 1 4.664-1.042 10.303 10.303 0 0 1-2.373 6.136c-2.056 2.486-5.168 3.942-8.463 3.963m.265-1.915c-.15.634-.238 1.275-.265 1.915"/></svg>