<svg xmlns="http://www.w3.org/2000/svg" width="42" height="42" fill="none" viewBox="0 0 42 42"><path stroke="#0266C1" d="M.5.5h41v41H.5z"/><path fill="#0266C1" d="M31.598 24.538c.678-2.285.12-4.879-.472-6.676a.44.44 0 0 0-.058-.196 16.275 16.275 0 0 0-.547-1.41.835.835 0 0 0 .489-.767v-3.473c0-.461-.347-.834-.775-.834h-9.518c-.214 0-.387.186-.388.416v.026c.133 2.502-.038 4.199-.53 5.396a.357.357 0 0 0-.027.037.436.436 0 0 0 0 .063 4.346 4.346 0 0 1-.752 1.18l-.034.025v.029a5.59 5.59 0 0 1-1.55 1.126c-.996.476-2.018.885-3.06 1.226l-.198.07c-3.622 1.293-4.094 3.637-4.087 4.813V28.616c.001.145.072.28.187.355a10.856 10.856 0 0 0 2.847 1.326c.206.062.42-.067.477-.289a.448.448 0 0 0 .015-.128v-.096h.57v.417a.41.41 0 0 0 .325.417c.336.058.673.104 1.003.133a.37.37 0 0 0 .294-.108.433.433 0 0 0 .124-.309v-.525h.57v.592c0 .23.173.417.387.417.325 0 .65 0 1-.05.201-.017.356-.2.356-.417v-.542h.57v.367c-.004.23.168.42.382.422a.36.36 0 0 0 .067-.005 12.356 12.356 0 0 0 2.095-.538l.062-.03c2.712-1.667 4.432-.295 4.501-.237a.37.37 0 0 0 .237.088h.48c.214 0 .387-.187.387-.417v-.705h.554v.696c0 .23.174.417.388.417h1.247c.214 0 .387-.187.387-.417v-.696h.574v.696c0 .23.173.417.387.417h.957c.214 0 .387-.187.387-.417v-4.495a.411.411 0 0 0-.31-.417Zm-9.192-12.514h7.81v3.453h-7.81v-3.453Zm-4.87 8.315.005.025c.317.277.61.586.875.921a.834.834 0 0 0-.104.418c-.003.44.326.798.735.801.408.003.742-.351.744-.791.003-.415-.29-.762-.674-.799a6.287 6.287 0 0 0-.833-.988c.347-.212.672-.46.973-.742.375.38.725.788 1.046 1.222-.135.415.068.87.454 1.014.386.145.808-.074.943-.489.134-.415-.07-.87-.455-1.015a.694.694 0 0 0-.249-.044h-.093c-.34-.46-.71-.894-1.108-1.297.185-.245.348-.507.488-.784.6.336 1.18.712 1.736 1.126-.004.444.328.808.74.812.413.004.751-.353.755-.797.004-.445-.328-.808-.74-.812a.703.703 0 0 0-.34.084 16.9 16.9 0 0 0-1.825-1.16c.422-1.209.604-2.814.519-5.003h.507v3.452c0 .461.347.834.775.834h7.26c.1.221.27.605.456 1.105h-.158c-2.354.019-4.248 2.087-4.23 4.62.009 1.44.646 2.791 1.72 3.65-3.134.888-7.849 1.943-11.815 1.667.732-3.148-.144-5.087-.713-5.938a24.697 24.697 0 0 0 2.607-1.092Zm-3.385 1.33c.419.53 1.51 2.31.71 5.584a9.234 9.234 0 0 1-3.975-1.293 2.857 2.857 0 0 1-.027-.288v-.029c-.031-.888.278-2.81 3.292-3.974Zm16.8 7.364v-.696c0-.23-.173-.417-.387-.417H29.22c-.214 0-.387.187-.387.417v.696h-.477v-.696c0-.23-.173-.417-.387-.417h-1.337c-.214 0-.387.187-.387.417v.68c-.527-.355-2.452-1.385-5.183.258-.486.173-.982.312-1.484.417v-.288c0-.23-.173-.417-.387-.417h-1.336c-.215 0-.388.187-.388.417v.572h-.197v-.584c0-.23-.174-.417-.388-.417h-1.344c-.214 0-.387.187-.387.417v.496l-.198-.03v-.466c0-.23-.173-.417-.387-.417H13.22c-.197-.002-.363.156-.387.367a10.082 10.082 0 0 1-1.976-.955v-1.493c1.69.963 3.874 1.326 6.198 1.326 6.175 0 13.24-2.544 14.074-2.848l.004 3.661h-.183Zm-.19-4.4c-.329.118-1.138.418-2.258.739-1.733-.903-2.458-3.147-1.62-5.013.575-1.276 1.768-2.096 3.085-2.118a3.28 3.28 0 0 1 .457.025l.003.013c.57 1.768 1.081 4.29.334 6.355Z"/><path fill="#0266C1" d="M23.898 12.529c-.623 0-1.128.543-1.128 1.213.003.67.506 1.211 1.128 1.213.622 0 1.127-.543 1.127-1.213s-.505-1.213-1.127-1.213Zm0 1.592c-.195 0-.353-.17-.353-.379 0-.21.158-.38.353-.38.195 0 .352.17.352.38s-.157.38-.352.38Z"/></svg>