<svg width="42" height="42" viewBox="0 0 42 42" fill="none" xmlns="http://www.w3.org/2000/svg">
<path fill-rule="evenodd" clip-rule="evenodd" d="M20.9998 1.90918C28.9075 1.90918 35.318 8.0182 35.318 15.5541V16.3759C35.318 19.3911 34.3294 22.331 32.4904 24.7846L21.0281 40.0771C21.0142 40.0956 20.9854 40.0956 20.9715 40.0771L9.50928 24.7846C7.67025 22.331 6.68164 19.3911 6.68164 16.3759V15.5541C6.68164 8.0182 13.0921 1.90918 20.9998 1.90918ZM18.4556 11.0046C16.8479 11.7373 15.6802 13.1228 15.2831 14.769C14.886 16.4152 15.3028 18.1429 16.4154 19.4631C17.528 20.7832 19.2153 21.5521 20.9998 21.5521C22.7843 21.5521 24.4717 20.7832 25.5843 19.4631C26.6969 18.1429 27.1136 16.4152 26.7165 14.769C26.3195 13.1228 25.1518 11.7373 23.544 11.0046C21.9362 10.272 20.0634 10.272 18.4556 11.0046Z" fill="#0266C1"/>
</svg>
