<svg xmlns="http://www.w3.org/2000/svg" width="20" height="20" fill="none" viewBox="0 0 20 20"><path fill="#fff" d="M17.622 11.106a.56.56 0 0 0-.47.102 5.993 5.993 0 0 1-1.82 1.067c-.634.246-1.33.37-2.066.37a6.002 6.002 0 0 1-4.253-1.765 6.044 6.044 0 0 1-1.758-4.268c0-.698.123-1.375.327-1.99a5.515 5.515 0 0 1 .982-1.765.525.525 0 0 0-.082-.739c-.143-.102-.307-.143-.47-.102a8.25 8.25 0 0 0-4.335 2.913A8.145 8.145 0 0 0 2 9.874c0 2.237.9 4.268 2.372 5.746A8.053 8.053 0 0 0 10.097 18c1.881 0 3.62-.657 5.01-1.744a8.094 8.094 0 0 0 2.862-4.494c.103-.308-.06-.595-.347-.656Zm-3.129 4.288a6.972 6.972 0 0 1-4.355 1.519c-1.942 0-3.7-.8-4.969-2.073a7.054 7.054 0 0 1-2.065-4.986c0-1.621.532-3.098 1.452-4.288a7.036 7.036 0 0 1 2.351-1.97 7.1 7.1 0 0 0-.286.697 6.85 6.85 0 0 0-.388 2.34c0 1.949.797 3.734 2.065 5.006a7.053 7.053 0 0 0 4.989 2.072c.859 0 1.677-.143 2.433-.43.266-.103.532-.206.777-.329a7.459 7.459 0 0 1-2.004 2.442Z"/></svg>
