<svg xmlns="http://www.w3.org/2000/svg" width="28" height="28" fill="none" viewBox="0 0 28 28"><path fill="#0266C1" d="M23.545 10.37c0-5.025-4.274-9.098-9.545-9.098-5.272 0-9.546 4.073-9.546 9.097v.548c0 2.01.66 3.97 1.885 5.606l7.642 10.195c.009.012.028.012.037 0l7.642-10.195a9.339 9.339 0 0 0 1.885-5.606v-.548Z"/><path fill="#fff" d="M12.303 7.336a4.11 4.11 0 0 1 3.393 0c1.071.489 1.85 1.412 2.115 2.51a3.549 3.549 0 0 1-.755 3.13c-.742.88-1.867 1.392-3.056 1.392-1.19 0-2.315-.513-3.057-1.393a3.549 3.549 0 0 1-.755-3.13c.265-1.097 1.044-2.02 2.115-2.509Z"/></svg>
