<svg xmlns="http://www.w3.org/2000/svg" width="11" height="16" fill="none" viewBox="0 0 11 16"><path fill="currentColor" d="M5.47 2.42c.972 0 1.762.767 1.762 1.71 0 .94-.79 1.708-1.762 1.708S3.707 5.07 3.707 4.13c0-.943.79-1.71 1.763-1.71Zm0 5.838c2.348 0 4.256-1.852 4.256-4.127C9.726 1.851 7.818 0 5.47 0 3.122 0 1.216 1.852 1.216 4.13c0 2.276 1.906 4.128 4.254 4.128Zm1.721 3.37a8.159 8.159 0 0 0 2.47-.995 1.19 1.19 0 0 0 .393-1.667 1.268 1.268 0 0 0-1.721-.381 5.547 5.547 0 0 1-5.73 0 1.264 1.264 0 0 0-1.718.38 1.19 1.19 0 0 0 .393 1.668 8.16 8.16 0 0 0 2.47.994l-2.38 2.307a1.185 1.185 0 0 0 0 1.71 1.275 1.275 0 0 0 1.765 0l2.337-2.267 2.339 2.267a1.269 1.269 0 0 0 1.762 0 1.185 1.185 0 0 0 0-1.71l-2.38-2.307Z"/></svg>
