<svg xmlns="http://www.w3.org/2000/svg" width="16" height="15" fill="none" viewBox="0 0 16 15"><path fill="currentColor" d="M9.28 0c-.476 0-.923.244-1.21.596-.286.352-.444.78-.56 1.233-.182.727-.239 1.533-.252 2.26a7.774 7.774 0 0 0-3.559 1.11c-.408-.347-.9-.54-1.373-.535-.537.006-1.047.24-1.427.72C.175 6.3.26 7.8 1.1 8.692c-.053.275-.091.557-.091.842 0 3.02 3.057 5.466 6.828 5.466 3.77 0 6.827-2.448 6.827-5.466a4.55 4.55 0 0 0-.09-.842c.84-.891.924-2.391.199-3.308-.38-.48-.89-.714-1.427-.72-.472-.005-.964.188-1.373.535a7.77 7.77 0 0 0-3.54-1.11c.018-.67.065-1.366.198-1.89.084-.33.183-.568.29-.699.106-.131.182-.185.36-.185.387 0 .436.126.669.432.117.154.253.346.47.534.216.187.537.35.885.35V1.314c-.097 0-.115-.002-.18-.062-.066-.059-.157-.195-.29-.37C10.568.533 10.051 0 9.281 0Zm3.758.123c-.899 0-1.626.827-1.626 1.85 0 1.022.727 1.849 1.626 1.849.898 0 1.625-.827 1.625-1.85 0-1.022-.727-1.849-1.625-1.849Zm0 .658c.578 0 1.047.534 1.047 1.192 0 .657-.47 1.191-1.047 1.191-.578 0-1.048-.534-1.048-1.191 0-.658.47-1.192 1.048-1.192ZM7.836 5.116c3.199 0 5.906 2.027 5.906 4.418 0 2.394-2.707 4.418-5.906 4.418-3.2 0-5.907-2.024-5.907-4.418 0-2.391 2.707-4.418 5.907-4.418Zm-5.492.596c.16.003.328.044.488.124-.58.5-1.04 1.076-1.355 1.726-.216-.509-.158-1.143.109-1.48a.935.935 0 0 1 .758-.37Zm10.983 0a.935.935 0 0 1 .758.37c.267.337.326.971.109 1.48a5.379 5.379 0 0 0-1.355-1.726c.16-.08.327-.121.488-.124ZM5.524 7.356c-.578 0-1.048.534-1.048 1.192 0 .657.47 1.192 1.048 1.192.578 0 1.047-.535 1.047-1.192 0-.658-.47-1.192-1.047-1.192Zm4.624 0c-.578 0-1.048.534-1.048 1.192 0 .657.47 1.192 1.048 1.192.578 0 1.047-.535 1.047-1.192 0-.658-.47-1.192-1.047-1.192Zm-5.184 4.048c.368.866 1.506 1.706 2.872 1.706 1.366 0 2.522-.84 2.89-1.706-.669.49-1.723.822-2.89.822-1.168 0-2.204-.331-2.872-.822Z"/></svg>
